<?xml version="1.0" encoding="UTF-8"?>
<!DOCTYPE svg PUBLIC "-//W3C//DTD SVG 1.1//EN" "http://www.w3.org/Graphics/SVG/1.1/DTD/svg11.dtd">
<svg xmlns="http://www.w3.org/2000/svg" version="1.1" width="1024px" height="1024px" style="shape-rendering:geometricPrecision; text-rendering:geometricPrecision; image-rendering:optimizeQuality; fill-rule:evenodd; clip-rule:evenodd" xmlns:xlink="http://www.w3.org/1999/xlink">
<g><path style="opacity:0.998" fill="#763d16" d="M 144.5,112.5 C 245.213,187.878 346.213,262.878 447.5,337.5C 448.73,339.297 449.396,341.297 449.5,343.5C 449.714,345.144 449.38,346.644 448.5,348C 410.667,379.833 372.833,411.667 335,443.5C 334.617,442.944 334.117,442.611 333.5,442.5C 278.038,457.701 222.704,473.534 167.5,490C 165.113,490.564 163.113,491.73 161.5,493.5C 149.877,479.373 138.044,465.373 126,451.5C 125.333,450.167 125.333,448.833 126,447.5C 130.665,444.328 135.165,440.995 139.5,437.5C 131.5,429.833 123.5,422.167 115.5,414.5C 121.033,408.802 127.033,403.635 133.5,399C 127.116,393.615 120.45,388.615 113.5,384C 111.773,382.611 110.439,380.944 109.5,379C 113.86,374.977 118.527,371.31 123.5,368C 124.899,366.938 125.899,365.605 126.5,364C 117.309,321.211 108.309,278.377 99.5,235.5C 112.899,194.802 126.399,154.135 140,113.5C 141.27,111.422 142.77,111.088 144.5,112.5 Z"/></g>
<g><path style="opacity:0.998" fill="#763d16" d="M 860.5,493.5 C 859.942,492.21 858.942,491.377 857.5,491C 801.561,474.516 745.561,458.35 689.5,442.5C 688.577,443.303 687.577,443.47 686.5,443C 648.921,410.247 610.921,378.081 572.5,346.5C 572.647,343.208 573.647,340.208 575.5,337.5C 676.806,262.854 777.806,187.854 878.5,112.5C 879.568,111.566 880.901,111.232 882.5,111.5C 896.157,152.804 909.823,194.137 923.5,235.5C 914.691,278.377 905.691,321.211 896.5,364C 901.728,369.62 907.395,374.786 913.5,379.5C 905.723,386.229 897.723,392.729 889.5,399C 895.967,403.635 901.967,408.802 907.5,414.5C 899.5,422.167 891.5,429.833 883.5,437.5C 887.835,440.995 892.335,444.328 897,447.5C 897.667,448.833 897.667,450.167 897,451.5C 884.968,465.693 872.802,479.693 860.5,493.5 Z"/></g>
<g><path style="opacity:0.994" fill="#e3751a" d="M 144.5,112.5 C 230.833,144.5 317.167,176.5 403.5,208.5C 402.016,209.473 401.516,210.807 402,212.5C 417.272,254.152 432.439,295.819 447.5,337.5C 346.213,262.878 245.213,187.878 144.5,112.5 Z"/></g>
<g><path style="opacity:0.994" fill="#e1751a" d="M 878.5,112.5 C 777.806,187.854 676.806,262.854 575.5,337.5C 590.628,295.453 605.961,253.453 621.5,211.5C 621.058,210.261 620.391,209.261 619.5,208.5C 705.845,176.496 792.178,144.496 878.5,112.5 Z"/></g>
<g><path style="opacity:0.998" fill="#f5841b" d="M 403.5,208.5 C 475.5,208.5 547.5,208.5 619.5,208.5C 620.391,209.261 621.058,210.261 621.5,211.5C 605.961,253.453 590.628,295.453 575.5,337.5C 573.647,340.208 572.647,343.208 572.5,346.5C 569.167,406.5 565.833,466.5 562.5,526.5C 562.5,527.833 562.5,529.167 562.5,530.5C 561.096,548.16 559.596,565.827 558,583.5C 557.333,626.167 557.333,668.833 558,711.5C 563.538,680.808 569.705,650.308 576.5,620C 577.448,619.517 578.448,619.351 579.5,619.5C 580.492,619.672 581.158,619.338 581.5,618.5C 608.056,610.425 634.723,602.759 661.5,595.5C 663.315,594.37 665.315,593.704 667.5,593.5C 668.822,596.768 669.489,600.435 669.5,604.5C 668.377,622.826 667.877,641.159 668,659.5C 691.782,613.603 715.282,567.603 738.5,521.5C 738.5,520.833 738.5,520.167 738.5,519.5C 722.555,495.049 706.389,470.715 690,446.5C 689.51,445.207 689.343,443.873 689.5,442.5C 745.561,458.35 801.561,474.516 857.5,491C 858.942,491.377 859.942,492.21 860.5,493.5C 879.973,551.587 898.64,609.92 916.5,668.5C 853.664,668.168 790.998,668.501 728.5,669.5C 707.497,669.333 686.497,669.5 665.5,670C 664.944,670.383 664.611,670.883 664.5,671.5C 634.19,694.482 604.19,717.815 574.5,741.5C 573.833,741.5 573.5,741.833 573.5,742.5C 568.712,738.168 563.545,734.168 558,730.5C 542.72,731.825 527.22,732.492 511.5,732.5C 495.681,732.485 480.015,731.818 464.5,730.5C 459.255,733.944 454.255,737.61 449.5,741.5C 449.167,741.5 448.833,741.5 448.5,741.5C 418.81,717.815 388.81,694.482 358.5,671.5C 358.082,670.778 357.416,670.278 356.5,670C 338.836,669.5 321.17,669.333 303.5,669.5C 238.002,668.501 172.335,668.168 106.5,668.5C 124.629,610.112 142.963,551.778 161.5,493.5C 163.113,491.73 165.113,490.564 167.5,490C 222.704,473.534 278.038,457.701 333.5,442.5C 333.509,444.308 333.009,445.975 332,447.5C 315.944,471.382 300.111,495.382 284.5,519.5C 284.5,520.167 284.5,520.833 284.5,521.5C 307.718,567.603 331.218,613.603 355,659.5C 355.063,640.495 354.563,621.495 353.5,602.5C 353.517,599.087 354.184,596.087 355.5,593.5C 357.117,594.038 358.784,594.371 360.5,594.5C 387.302,602.875 414.302,610.875 441.5,618.5C 443.218,619.224 445.052,619.891 447,620.5C 453.257,651.119 459.257,681.786 465,712.5C 465.667,669.5 465.667,626.5 465,583.5C 463.534,564.343 462.034,545.343 460.5,526.5C 457.363,465.315 453.696,404.315 449.5,343.5C 449.396,341.297 448.73,339.297 447.5,337.5C 432.439,295.819 417.272,254.152 402,212.5C 401.516,210.807 402.016,209.473 403.5,208.5 Z"/></g>
<g><path style="opacity:1" fill="#e3751a" d="M 449.5,343.5 C 453.696,404.315 457.363,465.315 460.5,526.5C 401.851,523.814 343.185,521.481 284.5,519.5C 300.111,495.382 315.944,471.382 332,447.5C 333.009,445.975 333.509,444.308 333.5,442.5C 334.117,442.611 334.617,442.944 335,443.5C 372.833,411.667 410.667,379.833 448.5,348C 449.38,346.644 449.714,345.144 449.5,343.5 Z"/></g>
<g><path style="opacity:1" fill="#e3751a" d="M 572.5,346.5 C 610.921,378.081 648.921,410.247 686.5,443C 687.577,443.47 688.577,443.303 689.5,442.5C 689.343,443.873 689.51,445.207 690,446.5C 706.389,470.715 722.555,495.049 738.5,519.5C 679.831,521.833 621.164,524.167 562.5,526.5C 565.833,466.5 569.167,406.5 572.5,346.5 Z"/></g>
<g><path style="opacity:1" fill="#cc6116" d="M 284.5,519.5 C 343.185,521.481 401.851,523.814 460.5,526.5C 455.987,556.597 450.821,586.597 445,616.5C 444.583,617.756 443.75,618.423 442.5,618.5C 434.331,601.495 426.164,584.495 418,567.5C 398.791,576.615 379.624,585.615 360.5,594.5C 358.784,594.371 357.117,594.038 355.5,593.5C 332.502,568.836 308.836,544.836 284.5,521.5C 284.5,520.833 284.5,520.167 284.5,519.5 Z"/></g>
<g><path style="opacity:1" fill="#cc6116" d="M 738.5,519.5 C 738.5,520.167 738.5,520.833 738.5,521.5C 714.861,545.473 691.194,569.473 667.5,593.5C 665.315,593.704 663.315,594.37 661.5,595.5C 661.611,594.883 661.944,594.383 662.5,594C 643.378,585.022 624.211,576.188 605,567.5C 596.432,584.607 588.599,601.607 581.5,618.5C 581.158,619.338 580.492,619.672 579.5,619.5C 573.172,589.862 567.505,560.195 562.5,530.5C 562.5,529.167 562.5,527.833 562.5,526.5C 621.164,524.167 679.831,521.833 738.5,519.5 Z"/></g>
<g><path style="opacity:1" fill="#e4751e" d="M 284.5,521.5 C 308.836,544.836 332.502,568.836 355.5,593.5C 354.184,596.087 353.517,599.087 353.5,602.5C 354.563,621.495 355.063,640.495 355,659.5C 331.218,613.603 307.718,567.603 284.5,521.5 Z"/></g>
<g><path style="opacity:1" fill="#e4751e" d="M 738.5,521.5 C 715.282,567.603 691.782,613.603 668,659.5C 667.877,641.159 668.377,622.826 669.5,604.5C 669.489,600.435 668.822,596.768 667.5,593.5C 691.194,569.473 714.861,545.473 738.5,521.5 Z"/></g>
<g><path style="opacity:1" fill="#e4751e" d="M 460.5,526.5 C 462.034,545.343 463.534,564.343 465,583.5C 465.667,626.5 465.667,669.5 465,712.5C 459.257,681.786 453.257,651.119 447,620.5C 445.052,619.891 443.218,619.224 441.5,618.5C 441.833,618.5 442.167,618.5 442.5,618.5C 443.75,618.423 444.583,617.756 445,616.5C 450.821,586.597 455.987,556.597 460.5,526.5 Z"/></g>
<g><path style="opacity:1" fill="#e4751e" d="M 562.5,530.5 C 567.505,560.195 573.172,589.862 579.5,619.5C 578.448,619.351 577.448,619.517 576.5,620C 569.705,650.308 563.538,680.808 558,711.5C 557.333,668.833 557.333,626.167 558,583.5C 559.596,565.827 561.096,548.16 562.5,530.5 Z"/></g>
<g><path style="opacity:1" fill="#263446" d="M 442.5,618.5 C 442.167,618.5 441.833,618.5 441.5,618.5C 414.302,610.875 387.302,602.875 360.5,594.5C 379.624,585.615 398.791,576.615 418,567.5C 426.164,584.495 434.331,601.495 442.5,618.5 Z"/></g>
<g><path style="opacity:1" fill="#253446" d="M 661.5,595.5 C 634.723,602.759 608.056,610.425 581.5,618.5C 588.599,601.607 596.432,584.607 605,567.5C 624.211,576.188 643.378,585.022 662.5,594C 661.944,594.383 661.611,594.883 661.5,595.5 Z"/></g>
<g><path style="opacity:0.996" fill="#e4751a" d="M 106.5,668.5 C 172.335,668.168 238.002,668.501 303.5,669.5C 288.163,669.333 272.83,669.5 257.5,670C 285.363,712.01 313.363,753.844 341.5,795.5C 341.833,796.167 342.167,796.833 342.5,797.5C 284.438,813.016 226.438,828.849 168.5,845C 165.243,846.043 161.91,846.543 158.5,846.5C 141.364,787.093 124.03,727.759 106.5,668.5 Z"/></g>
<g><path style="opacity:1" fill="#cd6116" d="M 303.5,669.5 C 321.17,669.333 338.836,669.5 356.5,670C 357.416,670.278 358.082,670.778 358.5,671.5C 353.965,711.512 349.299,751.512 344.5,791.5C 344.5,792.167 344.5,792.833 344.5,793.5C 342.821,793.285 341.821,793.952 341.5,795.5C 313.363,753.844 285.363,712.01 257.5,670C 272.83,669.5 288.163,669.333 303.5,669.5 Z"/></g>
<g><path style="opacity:1" fill="#cd6116" d="M 728.5,669.5 C 740.838,669.333 753.171,669.5 765.5,670C 737.637,712.01 709.637,753.844 681.5,795.5C 680.5,794.167 679.5,792.833 678.5,791.5C 673.506,751.55 668.84,711.55 664.5,671.5C 664.611,670.883 664.944,670.383 665.5,670C 686.497,669.5 707.497,669.333 728.5,669.5 Z"/></g>
<g><path style="opacity:0.996" fill="#e4751a" d="M 728.5,669.5 C 790.998,668.501 853.664,668.168 916.5,668.5C 899.325,727.533 881.991,786.533 864.5,845.5C 861.155,846.559 857.822,846.392 854.5,845C 796.562,828.849 738.562,813.016 680.5,797.5C 680.833,796.833 681.167,796.167 681.5,795.5C 709.637,753.844 737.637,712.01 765.5,670C 753.171,669.5 740.838,669.333 728.5,669.5 Z"/></g>
<g><path style="opacity:1" fill="#e3761b" d="M 358.5,671.5 C 388.81,694.482 418.81,717.815 448.5,741.5C 413.833,758.167 379.167,774.833 344.5,791.5C 349.299,751.512 353.965,711.512 358.5,671.5 Z"/></g>
<g><path style="opacity:1" fill="#e3761b" d="M 664.5,671.5 C 668.84,711.55 673.506,751.55 678.5,791.5C 678.167,791.5 677.833,791.5 677.5,791.5C 643.289,774.561 608.956,757.894 574.5,741.5C 604.19,717.815 634.19,694.482 664.5,671.5 Z"/></g>
<g><path style="opacity:1" fill="#171716" d="M 573.5,742.5 C 575.838,766.539 578.505,790.539 581.5,814.5C 577.869,813.392 574.869,811.226 572.5,808C 531.833,807.333 491.167,807.333 450.5,808C 448.5,810 446.5,812 444.5,814C 443.423,814.47 442.423,814.303 441.5,813.5C 444.347,789.52 447.013,765.52 449.5,741.5C 454.255,737.61 459.255,733.944 464.5,730.5C 480.015,731.818 495.681,732.485 511.5,732.5C 527.22,732.492 542.72,731.825 558,730.5C 563.545,734.168 568.712,738.168 573.5,742.5 Z"/></g>
<g><path style="opacity:1" fill="#d6c0b2" d="M 448.5,741.5 C 448.833,741.5 449.167,741.5 449.5,741.5C 447.013,765.52 444.347,789.52 441.5,813.5C 442.775,822.138 442.775,830.805 441.5,839.5C 408.955,824.392 376.621,809.058 344.5,793.5C 344.5,792.833 344.5,792.167 344.5,791.5C 379.167,774.833 413.833,758.167 448.5,741.5 Z"/></g>
<g><path style="opacity:1" fill="#d6c0b2" d="M 574.5,741.5 C 608.956,757.894 643.289,774.561 677.5,791.5C 677.719,792.675 677.386,793.675 676.5,794.5C 644.678,810.08 612.678,825.08 580.5,839.5C 580.427,831.146 580.76,822.812 581.5,814.5C 578.505,790.539 575.838,766.539 573.5,742.5C 573.5,741.833 573.833,741.5 574.5,741.5 Z"/></g>
<g><path style="opacity:0.989" fill="#c0ad9e" d="M 677.5,791.5 C 677.833,791.5 678.167,791.5 678.5,791.5C 679.5,792.833 680.5,794.167 681.5,795.5C 681.167,796.167 680.833,796.833 680.5,797.5C 667.664,808.166 654.664,818.666 641.5,829C 618.993,844.086 596.66,859.42 574.5,875C 532.5,875.667 490.5,875.667 448.5,875C 411.605,851.268 376.272,825.434 342.5,797.5C 342.167,796.833 341.833,796.167 341.5,795.5C 341.821,793.952 342.821,793.285 344.5,793.5C 376.621,809.058 408.955,824.392 441.5,839.5C 442.775,830.805 442.775,822.138 441.5,813.5C 442.423,814.303 443.423,814.47 444.5,814C 446.5,812 448.5,810 450.5,808C 491.167,807.333 531.833,807.333 572.5,808C 574.869,811.226 577.869,813.392 581.5,814.5C 580.76,822.812 580.427,831.146 580.5,839.5C 612.678,825.08 644.678,810.08 676.5,794.5C 677.386,793.675 677.719,792.675 677.5,791.5 Z"/></g>
</svg>
